<svg width="24" height="24" viewBox="0 0 24 24" fill="none" xmlns="http://www.w3.org/2000/svg">
<path d="M14.9995 2H9.24395C9.06447 2 8.97473 2 8.89551 2.02733C8.82544 2.05149 8.76163 2.09093 8.70868 2.14279C8.64881 2.20143 8.60868 2.2817 8.52841 2.44223L4.32841 10.8422C4.13673 11.2256 4.04089 11.4173 4.06391 11.5731C4.08401 11.7091 4.15927 11.8309 4.27197 11.9097C4.40104 12 4.61534 12 5.04395 12H11.2495L8.24953 22L20.4426 9.35531C20.854 8.9287 21.0597 8.7154 21.0717 8.53288C21.0821 8.37446 21.0167 8.22049 20.8954 8.11803C20.7557 8 20.4594 8 19.8667 8H12.7495L14.9995 2Z"  stroke-linecap="round" stroke-linejoin="round"/>
</svg>
