<svg width="390" height="44" viewBox="0 0 390 44" fill="none" xmlns="http://www.w3.org/2000/svg">
<g clip-path="url(#clip0_2_138)">
<path d="M85 -2H304V-2C301.894 -1.39731 300.418 0.495246 300.345 2.68446L300.317 3.5618V3.5618C300.317 17.0587 289.375 28 275.878 28H113.122C99.6249 28 88.6835 17.0587 88.6835 3.5618V3.5618L88.6545 2.68447C88.5823 0.49525 87.1059 -1.39731 85 -2V-2Z" fill="black"/>
<path opacity="0.35" d="M353.667 17.8334H370.333C371.53 17.8334 372.5 18.8034 372.5 20V26C372.5 27.1967 371.53 28.1667 370.333 28.1667H353.667C352.47 28.1667 351.5 27.1967 351.5 26V20C351.5 18.8034 352.47 17.8334 353.667 17.8334Z" stroke="white"/>
<path opacity="0.4" d="M374 21V25C374.805 24.6613 375.328 23.8732 375.328 23C375.328 22.1269 374.805 21.3388 374 21" fill="white"/>
<path d="M353 20.6667C353 19.9303 353.597 19.3334 354.333 19.3334H369.667C370.403 19.3334 371 19.9303 371 20.6667V25.3334C371 26.0698 370.403 26.6667 369.667 26.6667H354.333C353.597 26.6667 353 26.0698 353 25.3334V20.6667Z" fill="white"/>
<path fill-rule="evenodd" clip-rule="evenodd" d="M338.33 19.608C340.546 19.6081 342.677 20.4596 344.283 21.9863C344.404 22.1042 344.598 22.1027 344.717 21.983L345.873 20.8163C345.933 20.7556 345.967 20.6734 345.966 20.5878C345.966 20.5022 345.931 20.4204 345.87 20.3603C341.655 16.3208 335.005 16.3208 330.79 20.3603C330.729 20.4203 330.694 20.5021 330.694 20.5877C330.693 20.6733 330.727 20.7556 330.787 20.8163L331.943 21.983C332.062 22.1029 332.256 22.1044 332.377 21.9863C333.983 20.4595 336.114 19.608 338.33 19.608ZM338.33 23.4037C339.548 23.4036 340.722 23.8561 341.624 24.6733C341.746 24.7893 341.939 24.7868 342.058 24.6677L343.212 23.501C343.273 23.4398 343.307 23.3568 343.306 23.2705C343.305 23.1843 343.27 23.102 343.208 23.042C340.459 20.4856 336.204 20.4856 333.455 23.042C333.393 23.102 333.358 23.1843 333.357 23.2706C333.356 23.3569 333.39 23.4399 333.451 23.501L334.605 24.6677C334.724 24.7868 334.917 24.7893 335.039 24.6733C335.941 23.8567 337.114 23.4042 338.33 23.4037ZM340.643 25.9575C340.645 26.044 340.611 26.1274 340.549 26.188L338.552 28.2037C338.493 28.2629 338.414 28.2963 338.33 28.2963C338.247 28.2963 338.167 28.2629 338.109 28.2037L336.111 26.188C336.049 26.1274 336.015 26.0439 336.017 25.9574C336.019 25.8709 336.056 25.789 336.121 25.731C337.396 24.6521 339.264 24.6521 340.54 25.731C340.604 25.789 340.642 25.871 340.643 25.9575Z" fill="white"/>
<path fill-rule="evenodd" clip-rule="evenodd" d="M324.667 17.6666H323.667C323.114 17.6666 322.667 18.1143 322.667 18.6666V27.3333C322.667 27.8856 323.114 28.3333 323.667 28.3333H324.667C325.219 28.3333 325.667 27.8856 325.667 27.3333V18.6666C325.667 18.1143 325.219 17.6666 324.667 17.6666ZM319 20H320C320.552 20 321 20.4477 321 21V27.3333C321 27.8856 320.552 28.3333 320 28.3333H319C318.448 28.3333 318 27.8856 318 27.3333V21C318 20.4477 318.448 20 319 20ZM315.333 22.3333H314.333C313.781 22.3333 313.333 22.781 313.333 23.3333V27.3333C313.333 27.8856 313.781 28.3333 314.333 28.3333H315.333C315.886 28.3333 316.333 27.8856 316.333 27.3333V23.3333C316.333 22.781 315.886 22.3333 315.333 22.3333ZM310.667 24.3333H309.667C309.114 24.3333 308.667 24.781 308.667 25.3333V27.3333C308.667 27.8856 309.114 28.3333 309.667 28.3333H310.667C311.219 28.3333 311.667 27.8856 311.667 27.3333V25.3333C311.667 24.781 311.219 24.3333 310.667 24.3333Z" fill="white"/>
<path d="M37.3207 28.2563C40.0087 28.2563 41.6054 26.1543 41.6054 22.5947C41.6054 21.2544 41.349 20.1265 40.8583 19.2549C40.1479 17.8999 38.9247 17.1675 37.3793 17.1675C35.0795 17.1675 33.4535 18.7129 33.4535 20.8809C33.4535 22.917 34.9184 24.3965 36.9325 24.3965C38.1703 24.3965 39.1737 23.8179 39.6718 22.8145H39.6938C39.6938 22.8145 39.7231 22.8145 39.7304 22.8145C39.745 22.8145 39.7963 22.8145 39.7963 22.8145C39.7963 25.2314 38.8808 26.6743 37.3354 26.6743C36.4272 26.6743 35.724 26.1763 35.4823 25.3779H33.6C33.9149 27.1138 35.3871 28.2563 37.3207 28.2563ZM37.3866 22.895C36.1708 22.895 35.3065 22.0308 35.3065 20.8223C35.3065 19.6431 36.2148 18.7422 37.394 18.7422C38.5732 18.7422 39.4814 19.6577 39.4814 20.8516C39.4814 22.0308 38.5951 22.895 37.3866 22.895Z" fill="white"/>
<path d="M44.6965 28.1538C45.3923 28.1538 45.8684 27.6558 45.8684 26.9966C45.8684 26.3301 45.3923 25.8394 44.6965 25.8394C44.008 25.8394 43.5246 26.3301 43.5246 26.9966C43.5246 27.6558 44.008 28.1538 44.6965 28.1538ZM44.6965 22.6606C45.3923 22.6606 45.8684 22.1699 45.8684 21.5107C45.8684 20.8442 45.3923 20.3535 44.6965 20.3535C44.008 20.3535 43.5246 20.8442 43.5246 21.5107C43.5246 22.1699 44.008 22.6606 44.6965 22.6606Z" fill="white"/>
<path d="M52.7241 28H54.5332V26.0298H55.9614V24.4331H54.5332V17.4312H51.8672C49.9995 20.2437 48.5127 22.5947 47.5606 24.3452V26.0298H52.7241V28ZM49.311 24.3672C50.5415 22.1992 51.6401 20.4634 52.6509 18.9692H52.7534V24.4771H49.311V24.3672Z" fill="white"/>
<path d="M59.99 28H61.8797V17.4312H59.9974L57.2361 19.3647V21.1812L59.8655 19.3354H59.99V28Z" fill="white"/>
</g>
<defs>
<clipPath id="clip0_2_138">
<rect width="390" height="44" fill="white"/>
</clipPath>
</defs>
</svg>
