<svg width="390" height="44" viewBox="0 0 390 44" fill="none" xmlns="http://www.w3.org/2000/svg">
<g clip-path="url(#clip0_652_18729)">
<path d="M85 -2H304V-2C301.894 -1.39731 300.418 0.495246 300.345 2.68446L300.317 3.5618V3.5618C300.317 17.0587 289.375 28 275.878 28H113.122C99.6249 28 88.6835 17.0587 88.6835 3.5618V3.5618L88.6545 2.68447C88.5823 0.49525 87.1059 -1.39731 85 -2V-2Z" fill="black"/>
<path opacity="0.35" d="M351.5 19.9997C351.5 18.8031 352.47 17.833 353.667 17.833H370.333C371.53 17.833 372.5 18.8031 372.5 19.9997V25.9997C372.5 27.1963 371.53 28.1663 370.333 28.1663H353.667C352.47 28.1663 351.5 27.1963 351.5 25.9997V19.9997Z" stroke="white"/>
<path opacity="0.4" d="M374 20.9995V24.9995C374.805 24.6607 375.328 23.8726 375.328 22.9995C375.328 22.1264 374.805 21.3383 374 20.9995Z" fill="white"/>
<path d="M353 20.6663C353 19.93 353.597 19.333 354.333 19.333H369.667C370.403 19.333 371 19.93 371 20.6663V25.333C371 26.0694 370.403 26.6663 369.667 26.6663H354.333C353.597 26.6663 353 26.0694 353 25.333V20.6663Z" fill="white"/>
<path fill-rule="evenodd" clip-rule="evenodd" d="M338.33 19.6079C340.546 19.608 342.677 20.4594 344.283 21.9862C344.404 22.1041 344.597 22.1026 344.717 21.9829L345.873 20.8162C345.933 20.7555 345.966 20.6733 345.966 20.5877C345.965 20.5021 345.931 20.4202 345.87 20.3602C341.655 16.3207 335.005 16.3207 330.79 20.3602C330.729 20.4202 330.694 20.502 330.694 20.5876C330.693 20.6732 330.727 20.7555 330.787 20.8162L331.943 21.9829C332.062 22.1028 332.256 22.1043 332.377 21.9862C333.983 20.4593 336.114 19.6079 338.33 19.6079ZM338.33 23.4036C339.548 23.4035 340.722 23.856 341.624 24.6732C341.746 24.7892 341.939 24.7867 342.058 24.6676L343.212 23.5009C343.273 23.4397 343.307 23.3567 343.306 23.2704C343.305 23.1842 343.27 23.1018 343.208 23.0419C340.459 20.4855 336.203 20.4855 333.455 23.0419C333.393 23.1018 333.358 23.1842 333.357 23.2705C333.356 23.3568 333.39 23.4398 333.451 23.5009L334.605 24.6676C334.724 24.7867 334.916 24.7892 335.039 24.6732C335.94 23.8566 337.114 23.4041 338.33 23.4036ZM340.643 25.9574C340.645 26.0439 340.611 26.1273 340.549 26.1879L338.552 28.2036C338.493 28.2628 338.413 28.2961 338.33 28.2961C338.247 28.2961 338.167 28.2628 338.109 28.2036L336.111 26.1879C336.049 26.1272 336.015 26.0438 336.017 25.9573C336.019 25.8708 336.056 25.7889 336.121 25.7309C337.396 24.652 339.264 24.652 340.54 25.7309C340.604 25.7889 340.641 25.8709 340.643 25.9574Z" fill="white"/>
<path fill-rule="evenodd" clip-rule="evenodd" d="M324.667 17.6665H323.667C323.114 17.6665 322.667 18.1142 322.667 18.6665V27.3332C322.667 27.8855 323.114 28.3332 323.667 28.3332H324.667C325.219 28.3332 325.667 27.8855 325.667 27.3332V18.6665C325.667 18.1142 325.219 17.6665 324.667 17.6665ZM319 19.9998H320C320.552 19.9998 321 20.4476 321 20.9998V27.3332C321 27.8855 320.552 28.3332 320 28.3332H319C318.448 28.3332 318 27.8855 318 27.3332V20.9998C318 20.4476 318.448 19.9998 319 19.9998ZM315.333 22.3332H314.333C313.781 22.3332 313.333 22.7809 313.333 23.3332V27.3332C313.333 27.8855 313.781 28.3332 314.333 28.3332H315.333C315.886 28.3332 316.333 27.8855 316.333 27.3332V23.3332C316.333 22.7809 315.886 22.3332 315.333 22.3332ZM310.667 24.3332H309.667C309.114 24.3332 308.667 24.7809 308.667 25.3332V27.3332C308.667 27.8855 309.114 28.3332 309.667 28.3332H310.667C311.219 28.3332 311.667 27.8855 311.667 27.3332V25.3332C311.667 24.7809 311.219 24.3332 310.667 24.3332Z" fill="white"/>
<path d="M37.3207 28.2563C40.0087 28.2563 41.6053 26.1543 41.6053 22.5947C41.6053 21.2544 41.349 20.1265 40.8583 19.2549C40.1478 17.8999 38.9247 17.1675 37.3793 17.1675C35.0795 17.1675 33.4535 18.7129 33.4535 20.8809C33.4535 22.917 34.9183 24.3965 36.9325 24.3965C38.1703 24.3965 39.1737 23.8179 39.6718 22.8145H39.6937C39.6937 22.8145 39.723 22.8145 39.7303 22.8145C39.745 22.8145 39.7963 22.8145 39.7963 22.8145C39.7963 25.2314 38.8807 26.6743 37.3353 26.6743C36.4271 26.6743 35.724 26.1763 35.4823 25.3779H33.6C33.9149 27.1138 35.3871 28.2563 37.3207 28.2563ZM37.3866 22.895C36.1708 22.895 35.3065 22.0308 35.3065 20.8223C35.3065 19.6431 36.2147 18.7422 37.3939 18.7422C38.5731 18.7422 39.4813 19.6577 39.4813 20.8516C39.4813 22.0308 38.5951 22.895 37.3866 22.895Z" fill="white"/>
<path d="M44.6965 28.1538C45.3923 28.1538 45.8683 27.6558 45.8683 26.9966C45.8683 26.3301 45.3923 25.8394 44.6965 25.8394C44.008 25.8394 43.5246 26.3301 43.5246 26.9966C43.5246 27.6558 44.008 28.1538 44.6965 28.1538ZM44.6965 22.6606C45.3923 22.6606 45.8683 22.1699 45.8683 21.5107C45.8683 20.8442 45.3923 20.3535 44.6965 20.3535C44.008 20.3535 43.5246 20.8442 43.5246 21.5107C43.5246 22.1699 44.008 22.6606 44.6965 22.6606Z" fill="white"/>
<path d="M52.7241 28H54.5332V26.0298H55.9614V24.4331H54.5332V17.4312H51.8672C49.9995 20.2437 48.5127 22.5947 47.5605 24.3452V26.0298H52.7241V28ZM49.311 24.3672C50.5415 22.1992 51.6401 20.4634 52.6509 18.9692H52.7534V24.4771H49.311V24.3672Z" fill="white"/>
<path d="M59.99 28H61.8797V17.4312H59.9973L57.2361 19.3647V21.1812L59.8655 19.3354H59.99V28Z" fill="white"/>
</g>
<defs>
<clipPath id="clip0_652_18729">
<rect width="390" height="44" fill="white"/>
</clipPath>
</defs>
</svg>
