<svg width="24" height="24" viewBox="0 0 24 24" fill="none" xmlns="http://www.w3.org/2000/svg">
<path 
d="M4.5 4.5C4.5 4.08579 4.83579 3.75 5.25 3.75H10.5C10.9142 3.75 11.25 4.08579 11.25 4.5V7.5C11.25 7.91421 10.9142 8.25 10.5 8.25H5.25C4.83579 8.25 4.5 7.91421 4.5 7.5V4.5ZM14.25 16.5C14.25 16.0858 14.5858 15.75 15 15.75H20.25C20.6642 15.75 21 16.0858 21 16.5V19.5C21 19.9142 20.6642 20.25 20.25 20.25H15C14.5858 20.25 14.25 19.9142 14.25 19.5V16.5ZM4.5 12C4.5 11.5858 4.83579 11.25 5.25 11.25H10.5C10.9142 11.25 11.25 11.5858 11.25 12V19.5C11.25 19.9142 10.9142 20.25 10.5 20.25H5.25C4.83579 20.25 4.5 19.9142 4.5 19.5V12ZM14.25 4.5C14.25 4.08579 14.5858 3.75 15 3.75H20.25C20.6642 3.75 21 4.08579 21 4.5V12C21 12.4142 20.6642 12.75 20.25 12.75H15C14.5858 12.75 14.25 12.4142 14.25 12V4.5Z"  
stroke-width="1.5"/>
</svg>