<svg width="18" height="18" viewBox="0 0 18 18" fill="none" xmlns="http://www.w3.org/2000/svg">
<path d="M0.75 1.5C0.75 1.08579 1.08579 0.75 1.5 0.75H6.75C7.16421 0.75 7.5 1.08579 7.5 1.5V4.5C7.5 4.91421 7.16421 5.25 6.75 5.25H1.5C1.08579 5.25 0.75 4.91421 0.75 4.5V1.5ZM10.5 13.5C10.5 13.0858 10.8358 12.75 11.25 12.75H16.5C16.9142 12.75 17.25 13.0858 17.25 13.5V16.5C17.25 16.9142 16.9142 17.25 16.5 17.25H11.25C10.8358 17.25 10.5 16.9142 10.5 16.5V13.5ZM0.75 9C0.75 8.58579 1.08579 8.25 1.5 8.25H6.75C7.16421 8.25 7.5 8.58579 7.5 9V16.5C7.5 16.9142 7.16421 17.25 6.75 17.25H1.5C1.08579 17.25 0.75 16.9142 0.75 16.5V9ZM10.5 1.5C10.5 1.08579 10.8358 0.75 11.25 0.75H16.5C16.9142 0.75 17.25 1.08579 17.25 1.5V9C17.25 9.41421 16.9142 9.75 16.5 9.75H11.25C10.8358 9.75 10.5 9.41421 10.5 9V1.5Z" stroke="black" stroke-width="1.5"/>
</svg>
