<svg width="390" height="44" viewBox="0 0 390 44" fill="none" xmlns="http://www.w3.org/2000/svg">
<g clip-path="url(#clip0_652_19040)">
<path d="M85 -2H304V-2C301.894 -1.39731 300.418 0.495246 300.345 2.68446L300.317 3.5618V3.5618C300.317 17.0587 289.375 28 275.878 28H113.122C99.6249 28 88.6835 17.0587 88.6835 3.5618V3.5618L88.6545 2.68447C88.5823 0.49525 87.1059 -1.39731 85 -2V-2Z" fill="#333333"/>
<path opacity="0.35" d="M351.5 19.9997C351.5 18.8031 352.47 17.833 353.667 17.833H370.333C371.53 17.833 372.5 18.8031 372.5 19.9997V25.9997C372.5 27.1963 371.53 28.1663 370.333 28.1663H353.667C352.47 28.1663 351.5 27.1963 351.5 25.9997V19.9997Z" stroke="white"/>
<path opacity="0.4" d="M374 20.9995V24.9995C374.805 24.6607 375.328 23.8726 375.328 22.9995C375.328 22.1264 374.805 21.3383 374 20.9995Z" fill="white"/>
<path d="M353 20.6663C353 19.93 353.597 19.333 354.333 19.333H369.667C370.403 19.333 371 19.93 371 20.6663V25.333C371 26.0694 370.403 26.6663 369.667 26.6663H354.333C353.597 26.6663 353 26.0694 353 25.333V20.6663Z" fill="white"/>
<path fill-rule="evenodd" clip-rule="evenodd" d="M338.33 19.6079C340.546 19.608 342.678 20.4594 344.283 21.9862C344.404 22.1041 344.598 22.1026 344.717 21.9829L345.873 20.8162C345.933 20.7555 345.967 20.6733 345.966 20.5877C345.966 20.5021 345.931 20.4202 345.87 20.3602C341.655 16.3207 335.005 16.3207 330.79 20.3602C330.729 20.4202 330.694 20.502 330.694 20.5876C330.693 20.6732 330.727 20.7555 330.787 20.8162L331.943 21.9829C332.062 22.1028 332.256 22.1043 332.377 21.9862C333.983 20.4593 336.114 19.6079 338.33 19.6079ZM338.33 23.4036C339.548 23.4035 340.722 23.856 341.624 24.6732C341.747 24.7892 341.939 24.7867 342.058 24.6676L343.212 23.5009C343.273 23.4397 343.307 23.3567 343.306 23.2704C343.305 23.1842 343.27 23.1018 343.208 23.0419C340.46 20.4855 336.204 20.4855 333.455 23.0419C333.393 23.1018 333.358 23.1842 333.357 23.2705C333.356 23.3568 333.39 23.4398 333.451 23.5009L334.605 24.6676C334.724 24.7867 334.917 24.7892 335.039 24.6732C335.941 23.8566 337.114 23.4041 338.33 23.4036ZM340.643 25.9574C340.645 26.0439 340.611 26.1273 340.549 26.1879L338.552 28.2036C338.494 28.2628 338.414 28.2961 338.33 28.2961C338.247 28.2961 338.167 28.2628 338.109 28.2036L336.111 26.1879C336.049 26.1272 336.015 26.0438 336.017 25.9573C336.019 25.8708 336.057 25.7889 336.121 25.7309C337.396 24.652 339.265 24.652 340.54 25.7309C340.604 25.7889 340.642 25.8709 340.643 25.9574Z" fill="white"/>
<path fill-rule="evenodd" clip-rule="evenodd" d="M324.667 17.6665H323.667C323.114 17.6665 322.667 18.1142 322.667 18.6665V27.3332C322.667 27.8855 323.114 28.3332 323.667 28.3332H324.667C325.219 28.3332 325.667 27.8855 325.667 27.3332V18.6665C325.667 18.1142 325.219 17.6665 324.667 17.6665ZM319 19.9998H320C320.552 19.9998 321 20.4476 321 20.9998V27.3332C321 27.8855 320.552 28.3332 320 28.3332H319C318.448 28.3332 318 27.8855 318 27.3332V20.9998C318 20.4476 318.448 19.9998 319 19.9998ZM315.333 22.3332H314.333C313.781 22.3332 313.333 22.7809 313.333 23.3332V27.3332C313.333 27.8855 313.781 28.3332 314.333 28.3332H315.333C315.886 28.3332 316.333 27.8855 316.333 27.3332V23.3332C316.333 22.7809 315.886 22.3332 315.333 22.3332ZM310.667 24.3332H309.667C309.114 24.3332 308.667 24.7809 308.667 25.3332V27.3332C308.667 27.8855 309.114 28.3332 309.667 28.3332H310.667C311.219 28.3332 311.667 27.8855 311.667 27.3332V25.3332C311.667 24.7809 311.219 24.3332 310.667 24.3332Z" fill="white"/>
<path d="M37.3208 28.2563C40.0088 28.2563 41.6055 26.1543 41.6055 22.5947C41.6055 21.2544 41.3491 20.1265 40.8584 19.2549C40.1479 17.8999 38.9248 17.1675 37.3794 17.1675C35.0796 17.1675 33.4536 18.7129 33.4536 20.8809C33.4536 22.917 34.9185 24.3965 36.9326 24.3965C38.1704 24.3965 39.1738 23.8179 39.6719 22.8145H39.6938C39.6938 22.8145 39.7231 22.8145 39.7305 22.8145C39.7451 22.8145 39.7964 22.8145 39.7964 22.8145C39.7964 25.2314 38.8809 26.6743 37.3354 26.6743C36.4272 26.6743 35.7241 26.1763 35.4824 25.3779H33.6001C33.915 27.1138 35.3872 28.2563 37.3208 28.2563ZM37.3867 22.895C36.1709 22.895 35.3066 22.0308 35.3066 20.8223C35.3066 19.6431 36.2148 18.7422 37.394 18.7422C38.5732 18.7422 39.4814 19.6577 39.4814 20.8516C39.4814 22.0308 38.5952 22.895 37.3867 22.895Z" fill="white"/>
<path d="M44.6966 28.1538C45.3924 28.1538 45.8685 27.6558 45.8685 26.9966C45.8685 26.3301 45.3924 25.8394 44.6966 25.8394C44.0081 25.8394 43.5247 26.3301 43.5247 26.9966C43.5247 27.6558 44.0081 28.1538 44.6966 28.1538ZM44.6966 22.6606C45.3924 22.6606 45.8685 22.1699 45.8685 21.5107C45.8685 20.8442 45.3924 20.3535 44.6966 20.3535C44.0081 20.3535 43.5247 20.8442 43.5247 21.5107C43.5247 22.1699 44.0081 22.6606 44.6966 22.6606Z" fill="white"/>
<path d="M52.7242 28H54.5333V26.0298H55.9615V24.4331H54.5333V17.4312H51.8673C49.9996 20.2437 48.5128 22.5947 47.5606 24.3452V26.0298H52.7242V28ZM49.3111 24.3672C50.5416 22.1992 51.6402 20.4634 52.651 18.9692H52.7535V24.4771H49.3111V24.3672Z" fill="white"/>
<path d="M59.9901 28H61.8798V17.4312H59.9975L57.2362 19.3647V21.1812L59.8656 19.3354H59.9901V28Z" fill="white"/>
</g>
<defs>
<clipPath id="clip0_652_19040">
<rect width="390" height="44" fill="white"/>
</clipPath>
</defs>
</svg>
