<svg width="40" height="40" viewBox="0 0 40 40" fill="none" xmlns="http://www.w3.org/2000/svg">
<path fill-rule="evenodd" clip-rule="evenodd" d="M12.9311 3.33325H27.0688C28.4104 3.33323 29.5176 3.33321 30.4196 3.40691C31.3565 3.48345 32.2176 3.64773 33.0265 4.05988C34.2809 4.69903 35.3008 5.7189 35.94 6.97332C36.3521 7.78221 36.5164 8.64338 36.5929 9.58021C36.6666 10.4822 36.6666 11.5894 36.6666 12.931V22.5571C36.6666 23.6734 36.6666 24.5948 36.6151 25.3491C36.5618 26.1313 36.4476 26.8548 36.1591 27.5511C35.4825 29.1847 34.1847 30.4825 32.5511 31.1591C31.8548 31.4476 31.1313 31.5618 30.3491 31.6151C29.5948 31.6666 28.6734 31.6666 27.5571 31.6666H27.4999C26.6057 31.6666 26.4281 31.6771 26.2837 31.7112C26.0318 31.7706 25.7973 31.8879 25.5987 32.0537C25.4847 32.1488 25.3698 32.2845 24.8333 32.9999L22.3999 36.2444C22.3906 36.2568 22.3812 36.2694 22.3717 36.282C22.2161 36.4896 22.0402 36.7243 21.8709 36.9125C21.6842 37.1201 21.374 37.4257 20.9061 37.6077C20.3232 37.8344 19.6766 37.8344 19.0937 37.6077C18.6259 37.4257 18.3156 37.1201 18.1289 36.9125C17.9596 36.7243 17.7837 36.4896 17.6281 36.282L15.1666 32.9999C14.63 32.2845 14.5151 32.1488 14.4012 32.0537C14.2025 31.8879 13.968 31.7706 13.7162 31.7112C13.5717 31.6771 13.3942 31.6666 12.4999 31.6666H12.4427C11.3264 31.6666 10.405 31.6666 9.65069 31.6151C8.86855 31.5618 8.14505 31.4476 7.4487 31.1591C5.81518 30.4825 4.51735 29.1847 3.84072 27.5511C3.55228 26.8548 3.43806 26.1313 3.38469 25.3491C3.33323 24.5948 3.33324 23.6734 3.33325 22.557L3.33325 12.9311C3.33323 11.5895 3.33321 10.4822 3.40691 9.58021C3.48345 8.64338 3.64773 7.78221 4.05988 6.97332C4.69903 5.7189 5.7189 4.69903 6.97332 4.05988C7.78221 3.64773 8.64338 3.48345 9.58021 3.40691C10.4822 3.33321 11.5895 3.33323 12.9311 3.33325ZM9.85165 6.72917C9.12096 6.78887 8.74728 6.89708 8.48662 7.0299C7.85941 7.34948 7.34948 7.85941 7.0299 8.48662C6.89708 8.74728 6.78887 9.12096 6.72917 9.85165C6.66788 10.6018 6.66659 11.5723 6.66659 12.9999V22.4999C6.66659 23.6876 6.66749 24.4949 6.7103 25.1222C6.75208 25.7347 6.82816 26.053 6.92032 26.2755C7.25864 27.0923 7.90755 27.7412 8.72431 28.0795C8.94681 28.1717 9.26517 28.2478 9.87759 28.2895C10.505 28.3324 11.3123 28.3333 12.4999 28.3333C12.5469 28.3333 12.5934 28.3332 12.6396 28.3332C13.3156 28.3325 13.9101 28.332 14.482 28.467C15.2375 28.6453 15.941 28.9971 16.537 29.4945C16.9881 29.871 17.3444 30.347 17.7495 30.8881C17.7772 30.9251 17.8051 30.9624 17.8333 30.9999L19.9999 33.8888L22.1666 30.9999C22.1948 30.9623 22.2227 30.9251 22.2504 30.8881C22.6554 30.3469 23.0117 29.871 23.4628 29.4945C24.0588 28.9971 24.7624 28.6453 25.5178 28.467C26.0897 28.332 26.6843 28.3325 27.3602 28.3332C27.4064 28.3332 27.453 28.3333 27.4999 28.3333C28.6876 28.3333 29.4949 28.3324 30.1222 28.2895C30.7347 28.2478 31.053 28.1717 31.2755 28.0795C32.0923 27.7412 32.7412 27.0923 33.0795 26.2755C33.1717 26.053 33.2478 25.7347 33.2895 25.1222C33.3324 24.4949 33.3333 23.6876 33.3333 22.4999V12.9999C33.3333 11.5723 33.332 10.6018 33.2707 9.85165C33.211 9.12096 33.1028 8.74728 32.9699 8.48662C32.6504 7.85941 32.1404 7.34948 31.5132 7.0299C31.2526 6.89708 30.8789 6.78887 30.1482 6.72917C29.398 6.66788 28.4276 6.66659 26.9999 6.66659H12.9999C11.5723 6.66659 10.6018 6.66788 9.85165 6.72917ZM20.6147 34.6915C20.6155 34.6923 20.6159 34.6927 20.616 34.6928L20.6147 34.6915Z" fill="white"/>
<path fill-rule="evenodd" clip-rule="evenodd" d="M20.0002 10C20.9206 10 21.6668 10.7462 21.6668 11.6667V17.5C21.6668 18.4205 20.9206 19.1667 20.0002 19.1667C19.0797 19.1667 18.3335 18.4205 18.3335 17.5V11.6667C18.3335 10.7462 19.0797 10 20.0002 10ZM18.3335 23.3333C18.3335 22.4129 19.0797 21.6667 20.0002 21.6667H20.0168C20.9373 21.6667 21.6835 22.4129 21.6835 23.3333C21.6835 24.2538 20.9373 25 20.0168 25H20.0002C19.0797 25 18.3335 24.2538 18.3335 23.3333Z" fill="#12F287"/>
</svg>
