<svg width="40" height="40" viewBox="0 0 40 40" fill="none" xmlns="http://www.w3.org/2000/svg">
<path fill-rule="evenodd" clip-rule="evenodd" d="M34.0724 7.25817C34.7977 7.9609 34.816 9.11854 34.1133 9.84384L19.9398 24.4724C19.5987 24.8245 19.1305 25.0248 18.6402 25.0285C18.15 25.0322 17.6789 24.8389 17.3325 24.492L12.7631 19.9153C12.0496 19.2006 12.0505 18.0428 12.7652 17.3293C13.4799 16.6158 14.6376 16.6167 15.3512 17.3314L18.607 20.5924L31.4867 7.29902C32.1895 6.57373 33.3471 6.55544 34.0724 7.25817Z" fill="#12F287"/>
<path fill-rule="evenodd" clip-rule="evenodd" d="M24.7529 8.60896C22.1886 7.53901 19.3384 7.36558 16.6633 8.11673C13.9882 8.86787 11.6448 10.4996 10.0123 12.748C8.37975 14.9964 7.55361 17.7298 7.66753 20.506C7.78145 23.2822 8.82875 25.9388 10.64 28.0459C12.4512 30.1529 14.9204 31.5872 17.6481 32.1167C20.3757 32.6461 23.2022 32.2398 25.6702 30.9633C28.1382 29.6869 30.1033 27.6151 31.2476 25.0831C32.3919 22.5511 32.6483 19.7071 31.9755 17.0112C31.731 16.0314 32.3271 15.0388 33.3069 14.7943C34.2867 14.5498 35.2793 15.1458 35.5238 16.1257C36.396 19.6203 36.0635 23.307 34.5802 26.5892C33.0969 29.8714 30.5495 32.5571 27.3502 34.2117C24.151 35.8664 20.487 36.3931 16.9512 35.7068C13.4154 35.0205 10.2146 33.1612 7.86666 30.4298C5.51875 27.6985 4.16113 24.2548 4.01346 20.656C3.86579 17.0572 4.93671 13.5138 7.05294 10.5993C9.16917 7.68473 12.2069 5.56946 15.6746 4.59575C19.1423 3.62205 22.8371 3.84687 26.1612 5.23383C27.0932 5.62272 27.5335 6.69352 27.1446 7.62553C26.7557 8.55755 25.6849 8.99784 24.7529 8.60896Z" fill="white"/>
</svg>
