<svg width="24" height="24" viewBox="0 0 24 24" fill="none" xmlns="http://www.w3.org/2000/svg">
<g filter="url(#filter0_d_690_277)">
<path d="M5.25 7.8C5.25 6.11984 5.25 5.27976 5.57698 4.63803C5.8646 4.07354 6.32354 3.6146 6.88803 3.32698C7.52976 3 8.36984 3 10.05 3H18.45C20.1302 3 20.9702 3 21.612 3.32698C22.1765 3.6146 22.6354 4.07354 22.923 4.63803C23.25 5.27976 23.25 6.11984 23.25 7.8V13.2C23.25 14.8802 23.25 15.7202 22.923 16.362C22.6354 16.9265 22.1765 17.3854 21.612 17.673C20.9702 18 20.1302 18 18.45 18H15.9337C15.3097 18 14.9977 18 14.6992 18.0613C14.4344 18.1156 14.1782 18.2055 13.9375 18.3285C13.6662 18.4671 13.4225 18.662 12.9352 19.0518L10.5498 20.9602C10.1337 21.2931 9.92563 21.4595 9.75054 21.4597C9.59827 21.4599 9.45422 21.3906 9.35923 21.2716C9.25 21.1348 9.25 20.8684 9.25 20.3355V18C8.32003 18 7.85504 18 7.47354 17.8978C6.43827 17.6204 5.62962 16.8117 5.35222 15.7765C5.25 15.395 5.25 14.93 5.25 14V7.8Z" stroke-opacity="0.3" stroke-width="1.5" stroke-linecap="round" stroke-linejoin="round"/>
<g></g>
</g>
<defs>
<filter id="filter0_d_690_277" x="-1.75" y="0" width="32" height="32" filterUnits="userSpaceOnUse" color-interpolation-filters="sRGB">
<feFlood flood-opacity="0" result="BackgroundImageFix"/>
<feColorMatrix in="SourceAlpha" type="matrix" values="0 0 0 0 0 0 0 0 0 0 0 0 0 0 0 0 0 0 127 0" result="hardAlpha"/>
<feOffset dy="4"/>
<feGaussianBlur stdDeviation="2"/>
<feComposite in2="hardAlpha" operator="out"/>
<feColorMatrix type="matrix" values="0 0 0 0 0 0 0 0 0 0 0 0 0 0 0 0 0 0 0.25 0"/>
<feBlend mode="normal" in2="BackgroundImageFix" result="effect1_dropShadow_690_277"/>
<feBlend mode="normal" in="SourceGraphic" in2="effect1_dropShadow_690_277" result="shape"/>
</filter>
</defs>
</svg>
