<svg width="18" height="18" viewBox="0 0 18 18" fill="none" xmlns="http://www.w3.org/2000/svg">
<path d="M1.08337 16.9167L5.70776 15.1381C6.00355 15.0243 6.15144 14.9674 6.28981 14.8931C6.41271 14.8272 6.52987 14.751 6.64007 14.6655C6.76414 14.5692 6.87619 14.4572 7.10027 14.2331L16.5001 4.83334C17.4205 3.91286 17.4205 2.42048 16.5001 1.5C15.5796 0.579529 14.0872 0.579528 13.1667 1.5L3.76694 10.8998C3.54285 11.1239 3.43081 11.2359 3.33453 11.36C3.24902 11.4702 3.17288 11.5873 3.1069 11.7102C3.03263 11.8486 2.97575 11.9965 2.86198 12.2923L1.08337 16.9167ZM1.08337 16.9167L2.79847 12.4575C2.9212 12.1384 2.98257 11.9788 3.08782 11.9057C3.17981 11.8419 3.29363 11.8177 3.40362 11.8387C3.52948 11.8628 3.65036 11.9836 3.89211 12.2254L5.77469 14.108C6.01643 14.3497 6.13731 14.4706 6.16134 14.5964C6.18235 14.7064 6.1582 14.8203 6.09433 14.9122C6.02125 15.0175 5.8617 15.0789 5.5426 15.2016L1.08337 16.9167Z" stroke="white" stroke-opacity="0.5" stroke-width="1.5" stroke-linecap="round" stroke-linejoin="round"/>
</svg>
