<svg width="24" height="24" viewBox="0 0 24 24" fill="none" xmlns="http://www.w3.org/2000/svg">
<path d="M12 20.4H21.6M2.40002 20.4H4.18621C4.708 20.4 4.9689 20.4 5.21442 20.3419C5.4321 20.2904 5.64019 20.2055 5.83107 20.0902C6.04635 19.9601 6.23084 19.7783 6.5998 19.4147L20.0001 6.20719C20.8837 5.33625 20.8837 3.92417 20.0001 3.05323C19.1164 2.18229 17.6837 2.18229 16.8001 3.05323L3.39977 16.2607C3.03081 16.6244 2.84632 16.8062 2.71439 17.0184C2.59742 17.2065 2.51123 17.4116 2.45897 17.6261C2.40002 17.8681 2.40002 18.1253 2.40002 18.6396V20.4Z" stroke="white" stroke-width="2" stroke-linecap="round" stroke-linejoin="round"/>
</svg>
