<svg width="20" height="16" viewBox="0 0 20 16" fill="none" xmlns="http://www.w3.org/2000/svg">
<path d="M3.45455 15L3.45455 7.82051M3.45455 7.82051C4.81015 7.82051 5.90909 6.77584 5.90909 5.48718C5.90909 4.19851 4.81015 3.15385 3.45455 3.15385M3.45455 7.82051C2.09894 7.82051 1 6.77584 1 5.48718C1 4.19851 2.09894 3.15385 3.45455 3.15385M10 8.17949L10 1M10 8.17949C11.3556 8.17949 12.4545 9.22416 12.4545 10.5128C12.4545 11.8015 11.3556 12.8462 10 12.8462M10 8.17949C8.64439 8.17949 7.54545 9.22416 7.54545 10.5128C7.54545 11.8015 8.64439 12.8462 10 12.8462M3.45455 3.15385V1M10 12.8462V15M16.5455 8.89744L16.5455 15M16.5455 8.89744C17.9011 8.89744 19 7.85277 19 6.5641C19 5.27544 17.9011 4.23077 16.5455 4.23077M16.5455 8.89744C15.1898 8.89744 14.0909 7.85277 14.0909 6.5641C14.0909 5.27544 15.1898 4.23077 16.5455 4.23077M16.5455 4.23077V1" stroke="white" stroke-width="1.16667" stroke-linecap="round" stroke-linejoin="round"/>
</svg>
